HIERARCHY
ROOT newVegas:Hips
{
	OFFSET 0.000000 96.479958 0.000000
	CHANNELS 6 Xposition Yposition Zposition Xrotation Yrotation Zrotation
	JOINT newVegas:Pelvis
	{
		OFFSET 0.000000 0.000000 0.000000
		CHANNELS 3 Xrotation Yrotation Zrotation
		JOINT newVegas:LeftUpLeg
		{
			OFFSET 18.735201 -5.666702 -4.541200
			CHANNELS 3 Xrotation Yrotation Zrotation
			JOINT newVegas:LeftLeg
			{
				OFFSET -0.021200 -31.938179 0.493100
				CHANNELS 3 Xrotation Yrotation Zrotation
				JOINT newVegas:LeftFoot
				{
					OFFSET 0.021200 -31.938179 -4.336299
					CHANNELS 3 Xrotation Yrotation Zrotation
					JOINT newVegas:LeftToeBase
					{
						OFFSET 0.943001 -26.722000 15.023500
						CHANNELS 3 Xrotation Yrotation Zrotation
						End Site
						{
							OFFSET 0.000000 30.670183 0.000000
						}
					}
				}
				JOINT newVegas:Left_PantLeg
				{
					OFFSET 0.663870 -9.044666 -1.108900
					CHANNELS 3 Xrotation Yrotation Zrotation
					End Site
					{
						OFFSET 1.415995 20.635357 0.000000
					}
				}
			}
		}
		JOINT newVegas:RightUpLeg
		{
			OFFSET -18.735201 -5.666702 -4.541200
			CHANNELS 3 Xrotation Yrotation Zrotation
			JOINT newVegas:RightLeg
			{
				OFFSET 0.018946 -31.938133 0.493100
				CHANNELS 3 Xrotation Yrotation Zrotation
				JOINT newVegas:RightFoot
				{
					OFFSET -0.018946 -31.938126 -4.336299
					CHANNELS 3 Xrotation Yrotation Zrotation
					JOINT newVegas:RightToeBase
					{
						OFFSET -0.943001 -26.722004 15.023500
						CHANNELS 3 Xrotation Yrotation Zrotation
						End Site
						{
							OFFSET 0.000000 30.670187 0.000000
						}
					}
				}
				JOINT newVegas:Right_PantLeg
				{
					OFFSET -0.661674 -9.044716 -1.108900
					CHANNELS 3 Xrotation Yrotation Zrotation
					End Site
					{
						OFFSET -1.415958 20.635269 0.000000
					}
				}
			}
		}
	}
	JOINT newVegas:Spine
	{
		OFFSET 0.000000 10.199997 -0.299500
		CHANNELS 3 Xrotation Yrotation Zrotation
		JOINT newVegas:Spine1
		{
			OFFSET 0.000000 11.900002 -1.516600
			CHANNELS 3 Xrotation Yrotation Zrotation
			JOINT newVegas:Spine2
			{
				OFFSET 0.000000 13.600006 -2.842500
				CHANNELS 3 Xrotation Yrotation Zrotation
				JOINT newVegas:Neck
				{
					OFFSET 0.000000 9.624100 -2.890100
					CHANNELS 3 Xrotation Yrotation Zrotation
					JOINT newVegas:Head
					{
						OFFSET 0.000000 14.068802 -1.351900
						CHANNELS 3 Xrotation Yrotation Zrotation
						JOINT newVegas:Hair_Back
						{
							OFFSET 0.000000 3.231903 -17.524799
							CHANNELS 3 Xrotation Yrotation Zrotation
							End Site
							{
								OFFSET 0.000000 19.849884 0.000000
							}
						}
						JOINT newVegas:Hair_Front
						{
							OFFSET 0.000000 31.260406 4.573800
							CHANNELS 3 Xrotation Yrotation Zrotation
							JOINT newVegas:Hair_Front1
							{
								OFFSET 0.000000 2.284103 11.993300
								CHANNELS 3 Xrotation Yrotation Zrotation
								JOINT newVegas:Hair_Front2
								{
									OFFSET 0.000000 2.284103 11.993300
									CHANNELS 3 Xrotation Yrotation Zrotation
									End Site
									{
										OFFSET 0.000000 12.208862 0.000000
									}
								}
							}
						}
						JOINT newVegas:Jowel
						{
							OFFSET 0.000000 -7.458206 6.864100
							CHANNELS 3 Xrotation Yrotation Zrotation
							End Site
							{
								OFFSET 0.000000 19.849884 0.000000
							}
						}
					}
				}
				JOINT newVegas:LeftShoulder
				{
					OFFSET 15.263000 10.923401 -0.547700
					CHANNELS 3 Xrotation Yrotation Zrotation
					JOINT newVegas:LeftArm
					{
						OFFSET 25.438599 -2.830597 -13.032500
						CHANNELS 3 Xrotation Yrotation Zrotation
						JOINT newVegas:LeftForeArm
						{
							OFFSET 29.960503 0.000000 0.000000
							CHANNELS 3 Xrotation Yrotation Zrotation
							JOINT newVegas:LeftHand
							{
								OFFSET 27.849251 0.000000 0.000000
								CHANNELS 3 Xrotation Yrotation Zrotation
								JOINT newVegas:LeftHandThumb1
								{
									OFFSET 4.487587 -3.305161 6.305391
									CHANNELS 3 Xrotation Yrotation Zrotation
									JOINT newVegas:LeftHandThumb2
									{
										OFFSET 5.480453 -3.164139 3.164143
										CHANNELS 3 Xrotation Yrotation Zrotation
										JOINT newVegas:LeftHandThumb3
										{
											OFFSET 5.159721 -2.978973 2.978967
											CHANNELS 3 Xrotation Yrotation Zrotation
											End Site
											{
												OFFSET 2.494507 5.926697 1.738678
											}
										}
									}
								}
								JOINT newVegas:LeftHandIndex1
								{
									OFFSET 18.578728 -0.527832 5.208049
									CHANNELS 3 Xrotation Yrotation Zrotation
									JOINT newVegas:LeftHandIndex2
									{
										OFFSET 3.192009 0.000000 0.000000
										CHANNELS 3 Xrotation Yrotation Zrotation
										JOINT newVegas:LeftHandIndex3
										{
											OFFSET 3.835129 0.000000 0.000000
											CHANNELS 3 Xrotation Yrotation Zrotation
											End Site
											{
												OFFSET -0.034599 3.816971 0.371180
											}
										}
									}
								}
								JOINT newVegas:LeftHandMiddle1
								{
									OFFSET 18.476105 0.000000 0.000000
									CHANNELS 3 Xrotation Yrotation Zrotation
									JOINT newVegas:LeftHandMiddle2
									{
										OFFSET 3.324875 0.000000 0.000000
										CHANNELS 3 Xrotation Yrotation Zrotation
										JOINT newVegas:LeftHandMiddle3
										{
											OFFSET 4.596550 0.000000 0.000000
											CHANNELS 3 Xrotation Yrotation Zrotation
											End Site
											{
												OFFSET 0.057701 4.578827 0.399218
											}
										}
									}
								}
								JOINT newVegas:LeftHandRing1
								{
									OFFSET 17.732719 0.121887 -4.201567
									CHANNELS 3 Xrotation Yrotation Zrotation
									JOINT newVegas:LeftHandRing2
									{
										OFFSET 2.733170 0.000000 0.000000
										CHANNELS 3 Xrotation Yrotation Zrotation
										JOINT newVegas:LeftHandRing3
										{
											OFFSET 3.178268 0.000000 0.000000
											CHANNELS 3 Xrotation Yrotation Zrotation
											End Site
											{
												OFFSET 0.119102 3.170624 0.185394
											}
										}
									}
								}
								JOINT newVegas:LeftHandPinky1
								{
									OFFSET 15.989624 -0.606689 -7.535461
									CHANNELS 3 Xrotation Yrotation Zrotation
									JOINT newVegas:LeftHandPinky2
									{
										OFFSET 2.538986 0.000000 0.000000
										CHANNELS 3 Xrotation Yrotation Zrotation
										JOINT newVegas:LeftHandPinky3
										{
											OFFSET 2.593102 0.000000 0.000000
											CHANNELS 3 Xrotation Yrotation Zrotation
											End Site
											{
												OFFSET -0.150902 2.584198 0.152708
											}
										}
									}
								}
							}
							JOINT newVegas:Left_Sleeve
							{
								OFFSET 0.267448 -0.649796 0.577675
								CHANNELS 3 Xrotation Yrotation Zrotation
								End Site
								{
									OFFSET 0.000000 15.991241 0.000000
								}
							}
							JOINT newVegas:Left_CapeC
							{
								OFFSET 15.715958 -8.608795 -6.935905
								CHANNELS 3 Xrotation Yrotation Zrotation
								JOINT newVegas:Left_CapeC1
								{
									OFFSET 0.000000 -8.688499 0.000000
									CHANNELS 3 Xrotation Yrotation Zrotation
									End Site
									{
										OFFSET 0.000000 8.688499 0.000000
									}
								}
							}
						}
						JOINT newVegas:Left_CapeB
						{
							OFFSET 26.118385 -8.608795 -7.079235
							CHANNELS 3 Xrotation Yrotation Zrotation
							JOINT newVegas:Left_CapeB1
							{
								OFFSET 0.000000 -8.688499 0.000000
								CHANNELS 3 Xrotation Yrotation Zrotation
								End Site
								{
									OFFSET 0.000000 8.688499 0.000000
								}
							}
						}
						JOINT newVegas:Left_CapeA
						{
							OFFSET 5.115639 -8.608795 -10.395809
							CHANNELS 3 Xrotation Yrotation Zrotation
							JOINT newVegas:Left_CapeA1
							{
								OFFSET 0.000000 -8.688499 0.000000
								CHANNELS 3 Xrotation Yrotation Zrotation
								End Site
								{
									OFFSET 0.000000 8.688499 0.000000
								}
							}
						}
					}
				}
				JOINT newVegas:RightShoulder
				{
					OFFSET -15.263000 10.923401 -0.547700
					CHANNELS 3 Xrotation Yrotation Zrotation
					JOINT newVegas:RightArm
					{
						OFFSET -25.438599 -2.830597 -13.032500
						CHANNELS 3 Xrotation Yrotation Zrotation
						JOINT newVegas:RightForeArm
						{
							OFFSET -29.960503 0.000000 0.000000
							CHANNELS 3 Xrotation Yrotation Zrotation
							JOINT newVegas:RightHand
							{
								OFFSET -27.849251 0.000000 0.000000
								CHANNELS 3 Xrotation Yrotation Zrotation
								JOINT newVegas:RightHandThumb1
								{
									OFFSET -4.487587 -3.305161 6.305391
									CHANNELS 3 Xrotation Yrotation Zrotation
									JOINT newVegas:RightHandThumb2
									{
										OFFSET -5.480453 -3.164139 3.164143
										CHANNELS 3 Xrotation Yrotation Zrotation
										JOINT newVegas:RightHandThumb3
										{
											OFFSET -5.159721 -2.978973 2.978967
											CHANNELS 3 Xrotation Yrotation Zrotation
											End Site
											{
												OFFSET -2.494507 5.926697 1.738678
											}
										}
									}
								}
								JOINT newVegas:RightHandIndex1
								{
									OFFSET -18.578728 -0.527832 5.208049
									CHANNELS 3 Xrotation Yrotation Zrotation
									JOINT newVegas:RightHandIndex2
									{
										OFFSET -3.192009 0.000000 0.000000
										CHANNELS 3 Xrotation Yrotation Zrotation
										JOINT newVegas:RightHandIndex3
										{
											OFFSET -3.835129 0.000000 0.000000
											CHANNELS 3 Xrotation Yrotation Zrotation
											End Site
											{
												OFFSET 0.034599 3.816971 0.371180
											}
										}
									}
								}
								JOINT newVegas:RightHandMiddle1
								{
									OFFSET -18.476105 0.000000 0.000000
									CHANNELS 3 Xrotation Yrotation Zrotation
									JOINT newVegas:RightHandMiddle2
									{
										OFFSET -3.324875 0.000000 0.000000
										CHANNELS 3 Xrotation Yrotation Zrotation
										JOINT newVegas:RightHandMiddle3
										{
											OFFSET -4.596550 0.000000 0.000000
											CHANNELS 3 Xrotation Yrotation Zrotation
											End Site
											{
												OFFSET -0.057701 4.578827 0.399218
											}
										}
									}
								}
								JOINT newVegas:RightHandRing1
								{
									OFFSET -17.732719 0.121887 -4.201567
									CHANNELS 3 Xrotation Yrotation Zrotation
									JOINT newVegas:RightHandRing2
									{
										OFFSET -2.733170 0.000000 0.000000
										CHANNELS 3 Xrotation Yrotation Zrotation
										JOINT newVegas:RightHandRing3
										{
											OFFSET -3.178268 0.000000 0.000000
											CHANNELS 3 Xrotation Yrotation Zrotation
											End Site
											{
												OFFSET -0.119102 3.170624 0.185394
											}
										}
									}
								}
								JOINT newVegas:RightHandPinky1
								{
									OFFSET -15.989624 -0.606689 -7.535461
									CHANNELS 3 Xrotation Yrotation Zrotation
									JOINT newVegas:RightHandPinky2
									{
										OFFSET -2.538986 0.000000 0.000000
										CHANNELS 3 Xrotation Yrotation Zrotation
										JOINT newVegas:RightHandPinky3
										{
											OFFSET -2.593102 0.000000 0.000000
											CHANNELS 3 Xrotation Yrotation Zrotation
											End Site
											{
												OFFSET 0.150902 2.584198 0.152708
											}
										}
									}
								}
							}
							JOINT newVegas:Right_CapeC
							{
								OFFSET -15.715958 -8.608795 -6.935905
								CHANNELS 3 Xrotation Yrotation Zrotation
								JOINT newVegas:Right_CapeC1
								{
									OFFSET 0.000000 -8.688499 0.000000
									CHANNELS 3 Xrotation Yrotation Zrotation
									End Site
									{
										OFFSET 0.000000 8.688499 0.000000
									}
								}
							}
							JOINT newVegas:Right_Sleeve
							{
								OFFSET -0.267448 -0.649994 0.577675
								CHANNELS 3 Xrotation Yrotation Zrotation
								End Site
								{
									OFFSET 0.000000 15.991302 0.000000
								}
							}
						}
						JOINT newVegas:Right_CapeA
						{
							OFFSET -5.115540 -8.608795 -10.395824
							CHANNELS 3 Xrotation Yrotation Zrotation
							JOINT newVegas:Right_CapeA1
							{
								OFFSET 0.000000 -8.688499 0.000000
								CHANNELS 3 Xrotation Yrotation Zrotation
								End Site
								{
									OFFSET 0.000000 8.688499 0.000000
								}
							}
						}
						JOINT newVegas:Right_CapeB
						{
							OFFSET -26.118187 -8.608795 -7.079266
							CHANNELS 3 Xrotation Yrotation Zrotation
							JOINT newVegas:Right_CapeB1
							{
								OFFSET 0.000000 -8.688499 0.000000
								CHANNELS 3 Xrotation Yrotation Zrotation
								End Site
								{
									OFFSET 0.000000 8.688499 0.000000
								}
							}
						}
					}
				}
				JOINT newVegas:Left_Collar
				{
					OFFSET 18.625099 8.655502 8.828100
					CHANNELS 3 Xrotation Yrotation Zrotation
					JOINT newVegas:Left_Collar1
					{
						OFFSET 14.783401 10.540405 -1.259500
						CHANNELS 3 Xrotation Yrotation Zrotation
						End Site
						{
							OFFSET 0.000000 18.199875 0.000000
						}
					}
				}
				JOINT newVegas:Collar_Back
				{
					OFFSET 0.000000 15.630707 -20.132601
					CHANNELS 3 Xrotation Yrotation Zrotation
					End Site
					{
						OFFSET 0.000000 22.523010 0.000000
					}
				}
				JOINT newVegas:Left_Peck
				{
					OFFSET 17.239599 -5.132599 25.482599
					CHANNELS 3 Xrotation Yrotation Zrotation
					End Site
					{
						OFFSET 0.000000 22.523010 0.000000
					}
				}
				JOINT newVegas:Right_Peck
				{
					OFFSET -17.239599 -5.132202 25.482599
					CHANNELS 3 Xrotation Yrotation Zrotation
					End Site
					{
						OFFSET 0.000000 22.523010 0.000000
					}
				}
				JOINT newVegas:Right_Collar
				{
					OFFSET -18.625099 8.655792 8.828100
					CHANNELS 3 Xrotation Yrotation Zrotation
					JOINT newVegas:Right_Collar1
					{
						OFFSET -14.783401 10.539993 -1.259500
						CHANNELS 3 Xrotation Yrotation Zrotation
						End Site
						{
							OFFSET 0.000000 18.199631 0.000000
						}
					}
				}
			}
		}
		JOINT newVegas:Belly
		{
			OFFSET 0.000000 -6.540398 9.014299
			CHANNELS 3 Xrotation Yrotation Zrotation
			End Site
			{
				OFFSET 0.000000 11.566666 0.000000
			}
		}
	}
	JOINT newVegas:ElvisFacialAnim_Joint
	{
		OFFSET 1.000000 -95.330101 -8.825800
		CHANNELS 3 Xrotation Yrotation Zrotation
		End Site
		{
			OFFSET 0.000000 35.315800 0.000000
		}
	}
}
MOTION
Frames: 4
Frame Time: 0.033333
-2.529504 83.470245 1.048900 9.511081 -61.528175 10.139677 0.000000 -0.000000 -0.000000 -41.485756 6.898162 29.341526 42.476905 -8.855426 1.133485 -6.286000 -1.073253 -21.274668 0.000000 0.000000 0.000000 0.000000 -0.000003 0.000002 -31.350473 -15.812305 -39.178436 41.614635 6.255856 -4.188112 -15.614454 -2.030828 28.893165 0.000000 0.000000 -0.000000 0.000000 0.000000 -0.000000 15.063823 -0.418077 -4.284012 5.872402 0.563936 -2.798216 5.868708 0.648201 -2.860166 -0.718933 0.306351 0.742019 -0.718928 0.306338 0.742029 -0.000003 0.000002 -0.000000 -0.718913 0.306327 0.742027 -0.718922 0.306380 0.742020 -0.000000 0.000002 0.000000 -0.000003 0.000002 0.000001 1.828101 -3.192666 -12.271568 -39.509550 26.103793 -34.974431 0.428452 -46.692765 0.414747 -10.264430 -0.004320 0.505161 40.109951 -15.297172 -0.360496 5.639788 28.097933 11.338843 0.000002 0.000002 -0.000006 6.882258 2.840068 -61.140418 8.247992 7.640043 -89.897891 -0.000002 0.000002 -0.000001 -2.345504 4.688860 -62.655238 8.754129 9.897068 -87.051280 0.000003 0.000001 -0.000001 -9.042452 10.045662 -60.766192 8.524123 9.508797 -66.893042 -0.000001 0.000001 0.000002 -17.946909 14.755013 -51.485884 8.868405 8.667052 -84.811962 -0.000003 -0.000005 -0.000001 0.000001 0.000002 -0.000003 0.000001 0.000002 -0.000003 0.000000 0.000003 -0.000003 0.000001 -0.000001 0.000000 0.000001 -0.000001 -0.000003 0.000001 -0.000001 0.000000 0.000000 -0.000001 0.000000 0.632609 7.257336 8.700406 7.936017 -9.680156 53.429892 -22.867417 36.194696 17.955445 -27.369919 10.432895 -17.813548 -2.346179 -6.100541 10.731431 2.364044 -23.806320 -8.771052 -0.000000 -0.000001 0.000001 -0.054733 0.532118 0.738729 0.019769 -0.087328 5.078498 -0.000001 -0.000000 0.000005 0.348265 -5.918525 2.583824 1.432607 -4.204226 24.052105 0.000001 -0.000001 0.000001 1.205836 -11.756071 4.154783 1.794842 -3.771883 26.865383 -0.000000 0.000002 0.000002 2.126201 -19.166885 11.319961 3.354779 -2.122215 18.828550 0.000001 0.000002 -0.000000 -0.000001 -0.000000 0.000001 -0.000003 -0.000000 0.000001 -0.000001 -0.000000 0.000001 0.000003 -0.000003 -0.000002 0.000003 -0.000003 -0.000003 0.000003 -0.000003 -0.000002 0.000003 -0.000003 -0.000001 0.000002 -0.000001 0.000001 0.000002 -0.000001 0.000001 0.000002 -0.000001 0.000001 0.000002 -0.000001 0.000001 0.000002 -0.000001 0.000001 0.000002 -0.000001 0.000001 0.000002 -0.000001 0.000001 -0.000000 -0.000001 0.000001 0.000000 -0.000000 -0.000000 
-2.471126 82.683708 1.003774 12.090194 -61.802898 12.274339 0.000001 -0.000001 0.000000 -44.132782 6.448270 30.504257 45.174533 -9.561780 0.624860 -7.429704 -0.939381 -20.892913 0.000000 -0.000003 0.000000 -0.000000 -0.000004 0.000002 -34.947718 -15.649958 -40.468895 44.356153 8.408697 -3.731272 -16.548549 -1.963669 27.838692 -0.000000 0.000000 0.000000 -0.000001 0.000000 -0.000002 15.620660 -0.200375 -4.083684 5.620363 0.819851 -2.712470 5.610156 0.906144 -2.793738 -1.269606 0.371008 0.756504 -1.269599 0.371013 0.756497 -0.000001 -0.000002 0.000000 -1.269598 0.370972 0.756515 -1.269681 0.371046 0.756489 -0.000000 0.000002 0.000000 -0.000001 -0.000002 0.000002 1.858964 -3.089919 -12.466368 -39.584310 25.960852 -35.434062 0.553198 -47.147720 0.496531 -10.468598 0.139739 0.942683 40.109948 -15.297172 -0.360493 5.639786 28.097933 11.338850 0.000001 -0.000002 -0.000010 6.882259 2.840066 -61.140418 8.247988 7.640042 -89.897884 -0.000001 0.000003 -0.000000 -2.345507 4.688860 -62.655238 8.754131 9.897071 -87.051280 0.000002 0.000000 0.000001 -9.042453 10.045660 -60.766185 8.524123 9.508796 -66.893042 0.000001 -0.000001 0.000001 -17.946908 14.755017 -51.485881 8.868399 8.667051 -84.811975 0.000002 -0.000005 0.000000 0.000001 -0.000001 0.000002 0.000001 -0.000001 0.000002 0.000000 -0.000000 0.000002 -0.000000 0.000001 -0.000001 0.000000 -0.000000 -0.000004 -0.000000 0.000001 -0.000001 -0.000001 0.000001 -0.000002 0.658664 7.168074 8.762997 7.399246 -9.467939 53.460058 -24.383147 34.176873 19.798844 -27.135682 13.328610 -18.940465 -2.704119 -5.576767 10.840933 2.476104 -24.197368 -8.817469 0.000001 -0.000003 0.000001 -0.054125 0.530668 2.371445 0.022608 -0.086804 6.656696 0.000000 0.000002 -0.000001 0.350869 -5.918145 4.216388 1.432935 -4.204185 25.684139 0.000001 0.000000 -0.000001 1.205811 -11.752169 5.786640 1.793364 -3.772652 28.497214 0.000000 0.000001 0.000000 2.126493 -19.166518 12.951921 3.355057 -2.122034 20.460516 -0.000000 -0.000002 0.000001 0.000001 -0.000001 -0.000000 0.000001 -0.000001 -0.000002 0.000001 -0.000001 -0.000000 -0.000005 -0.000001 -0.000002 -0.000005 0.000000 -0.000001 -0.000005 -0.000001 -0.000002 -0.000004 -0.000000 -0.000001 -0.000001 -0.000003 0.000000 -0.000001 -0.000003 0.000000 -0.000001 -0.000003 0.000000 -0.000001 -0.000003 0.000000 -0.000001 -0.000003 0.000000 -0.000001 -0.000003 0.000000 -0.000001 -0.000003 0.000000 -0.000001 -0.000003 0.000000 0.000001 -0.000001 0.000000 
-2.319695 81.410492 0.867368 15.237956 -62.274325 14.947353 -0.000000 -0.000000 0.000000 -47.801670 5.698604 32.178568 49.395385 -10.476427 0.017523 -9.082471 -0.775539 -20.272543 0.000000 0.000006 -0.000000 -0.000000 -0.000003 0.000000 -39.914184 -14.359308 -41.602658 49.076186 10.851028 -3.982213 -17.534419 -1.875144 26.843328 0.000000 0.000000 -0.000000 0.000001 -0.000000 -0.000002 16.380474 0.024763 -3.823328 5.411240 1.059534 -2.700570 5.394664 1.143813 -2.800843 -2.178926 0.501415 0.833168 -2.178954 0.501440 0.833157 -0.000000 -0.000000 -0.000000 -2.178863 0.501430 0.833159 -2.178953 0.501448 0.833158 -0.000003 0.000003 -0.000001 -0.000000 -0.000000 -0.000001 1.929614 -3.050275 -12.016797 -39.537035 26.035558 -36.141649 -0.437764 -47.879537 -0.093585 -10.855730 0.160228 1.907531 40.109951 -15.297173 -0.360497 5.639783 28.097928 11.338843 0.000001 -0.000003 -0.000003 6.882256 2.840070 -61.140418 8.247990 7.640045 -89.897891 -0.000004 0.000002 0.000000 -2.345503 4.688861 -62.655245 8.754131 9.897081 -87.051280 0.000005 -0.000000 0.000002 -9.042456 10.045666 -60.766192 8.524115 9.508798 -66.893042 -0.000002 0.000001 -0.000001 -17.946908 14.755013 -51.485877 8.868399 8.667055 -84.811968 0.000001 0.000000 -0.000004 -0.000003 -0.000001 -0.000001 -0.000003 -0.000001 -0.000001 -0.000003 -0.000000 -0.000001 0.000000 -0.000002 -0.000005 0.000001 -0.000003 -0.000005 0.000000 -0.000002 -0.000005 -0.000001 -0.000002 -0.000005 0.674803 7.368065 9.066273 5.917650 -9.314205 52.845515 -25.111954 33.909143 20.648780 -27.231317 14.558651 -18.749277 -3.497108 -4.421997 11.092193 2.714679 -25.029298 -8.913611 0.000002 0.000000 -0.000002 -0.054647 0.530838 5.905985 0.027911 -0.084871 10.079938 -0.000001 0.000001 0.000001 0.351611 -5.917971 7.749880 1.433163 -4.205713 29.217845 0.000001 -0.000001 0.000000 1.204900 -11.750285 9.320017 1.792606 -3.772662 32.030835 -0.000000 -0.000001 -0.000000 2.126008 -19.166978 16.485329 3.354603 -2.122187 23.994149 0.000000 -0.000000 -0.000000 0.000002 0.000001 0.000001 0.000000 0.000000 -0.000001 0.000002 0.000001 0.000001 -0.000002 0.000000 -0.000002 -0.000002 0.000001 -0.000001 -0.000002 0.000000 -0.000002 -0.000002 0.000001 -0.000001 -0.000001 -0.000003 0.000002 -0.000001 -0.000003 0.000002 -0.000001 -0.000003 0.000002 -0.000001 -0.000003 0.000002 -0.000001 -0.000003 0.000002 -0.000001 -0.000003 0.000002 -0.000001 -0.000003 0.000002 0.000002 0.000003 -0.000001 -0.000000 -0.000000 0.000000 
-2.228209 79.540314 0.654679 18.657398 -62.860478 17.796498 -0.000001 0.000001 -0.000000 -52.308239 4.302291 34.311923 55.396406 -11.350534 -0.331383 -11.315178 -0.576974 -19.558600 0.000000 0.000002 -0.000000 0.000000 -0.000001 -0.000000 -46.259010 -11.249118 -42.352589 56.381408 13.907910 -5.006528 -17.913383 -1.477168 25.568108 -0.000000 0.000000 0.000000 0.000001 0.000000 -0.000004 17.243250 0.307936 -3.636881 5.381695 1.345253 -2.513664 5.360021 1.450256 -2.643295 -3.314918 0.656435 1.074355 -3.314921 0.656414 1.074364 0.000001 -0.000001 0.000001 -3.314993 0.656415 1.074362 -3.314840 0.656452 1.074347 -0.000001 0.000002 -0.000001 0.000001 -0.000001 0.000001 2.046839 -2.911928 -11.638000 -39.203647 25.861357 -36.989272 -2.787200 -49.290665 -1.883825 -11.660653 0.171953 3.842817 40.109941 -15.297173 -0.360501 5.639783 28.097930 11.338853 0.000004 0.000001 -0.000003 6.882251 2.840064 -61.140418 8.247990 7.640046 -89.897891 0.000004 -0.000003 0.000001 -2.345510 4.688859 -62.655238 8.754130 9.897071 -87.051280 0.000001 0.000001 0.000002 -9.042452 10.045659 -60.766185 8.524124 9.508802 -66.893042 -0.000002 0.000001 0.000002 -17.946909 14.755013 -51.485884 8.868400 8.667053 -84.811968 -0.000001 -0.000007 -0.000001 0.000001 0.000000 -0.000002 0.000001 0.000000 -0.000002 0.000000 0.000001 -0.000002 -0.000001 0.000000 -0.000001 -0.000001 0.000000 -0.000000 -0.000001 0.000000 -0.000001 -0.000002 0.000001 -0.000002 0.749830 7.606672 9.068119 4.070291 -8.835775 51.662646 -28.939027 33.947089 22.770988 -27.315936 16.001690 -18.465020 -4.667910 -2.734316 11.489474 3.045036 -26.181882 -9.041593 -0.000000 -0.000003 0.000001 -0.055788 0.532603 10.934314 0.033680 -0.082510 14.971500 -0.000000 0.000001 -0.000001 0.351420 -5.917739 12.776657 1.433865 -4.207335 34.244830 0.000001 0.000000 0.000000 1.203754 -11.750352 14.346734 1.792574 -3.772685 37.057820 -0.000001 0.000001 -0.000002 2.125859 -19.167200 21.512263 3.354394 -2.122301 29.021136 -0.000001 -0.000000 -0.000000 -0.000001 0.000001 -0.000000 -0.000003 0.000001 0.000000 -0.000001 0.000001 -0.000000 -0.000003 0.000001 0.000003 -0.000002 0.000002 -0.000000 -0.000003 0.000001 0.000003 -0.000002 0.000002 0.000002 0.000001 0.000000 0.000000 0.000001 0.000000 0.000000 0.000001 0.000000 0.000000 0.000001 0.000000 0.000000 0.000001 0.000000 0.000000 0.000001 0.000000 0.000000 0.000001 0.000000 0.000000 0.000001 -0.000001 0.000000 -0.000001 0.000001 -0.000000 
